<svg width="51" height="70" viewBox="0 0 51 70" fill="none" xmlns="http://www.w3.org/2000/svg">
<path d="M39.72 48.0953C36.8927 48.0937 34.1772 49.2017 32.1575 51.1809L19.8748 40.945C21.073 39.1586 21.7131 37.0559 21.7131 34.9051C21.7131 32.7544 21.073 30.6517 19.8748 28.8652L32.1575 18.6308C34.8413 21.2393 38.6802 22.2805 42.314 21.3863C45.9484 20.4916 48.8649 17.7867 50.0307 14.2303C51.1965 10.6738 50.4473 6.76778 48.048 3.89497C45.6492 1.02255 41.939 -0.410706 38.2318 0.102774C34.5241 0.616266 31.3432 3.00431 29.8157 6.42091C28.2875 9.8375 28.6283 13.8004 30.7171 16.9059L18.4266 27.1398C16.3783 25.1407 13.6228 24.0327 10.7606 24.0558C7.89859 24.0794 5.16195 25.2329 3.14647 27.2648C1.13099 29.2967 0 32.0431 0 34.9051C0 37.7672 1.13101 40.5135 3.14647 42.5454C5.16195 44.5773 7.89859 45.7308 10.7606 45.7544C13.6227 45.7775 16.3782 44.6696 18.4266 42.6704L30.7171 52.9043C28.9102 55.6029 28.4079 58.9689 29.3482 62.0774C30.2886 65.1855 32.5726 67.7089 35.572 68.9531C38.572 70.1974 41.9711 70.0314 44.8358 68.5011C47.6999 66.9709 49.7278 64.2374 50.3611 61.0525C50.9945 57.8676 50.1669 54.5658 48.1059 52.0563C46.0447 49.5467 42.9674 48.0929 39.7199 48.0945L39.72 48.0953Z" fill="white"/>
</svg>
